<?xml version="1.0" encoding="UTF-8" standalone="no"?>
<svg
   height="128"
   width="128"
   version="1.1"
   viewBox="0 0 128 128"
   xmlns="http://www.w3.org/2000/svg">
  <g>
    <rect
       height="128"
       width="128"
       fill="#478CBF"
       rx="6.4"
       ry="6.4" />
    <path
       d="M 64,96 A 32,32 0 0 1 32,64 32,32 0 0 1 64,32 32,32 0 0 1 96,64 32,32 0 0 1 64,96 Z"
       fill="#FFFFFF" />
    <path
       d="M 64,48 A 16,16 0 0 1 80,64 16,16 0 0 1 64,80 16,16 0 0 1 48,64 16,16 0 0 1 64,48 Z"
       fill="#478CBF" />
  </g>
</svg>